<svg width="153" height="105" viewBox="0 0 153 105" fill="none" xmlns="http://www.w3.org/2000/svg">
<rect x="4.5" y="4.5" width="72" height="24" fill="#FF7261" stroke="white" stroke-width="8" stroke-linejoin="round"/>
<rect x="52.5" y="28.5" width="24" height="48" fill="#0FCF82" stroke="white" stroke-width="8"/>
<rect x="28.5" y="28.5" width="24" height="48" fill="#A259FF" stroke="white" stroke-width="8" stroke-linejoin="round"/>
<rect x="124.5" y="28.5" width="24" height="36" fill="#FF7261" stroke="white" stroke-width="8" stroke-linejoin="round"/>
<rect x="124.5" y="64.5" width="24" height="36" fill="#A259FF" stroke="white" stroke-width="8" stroke-linejoin="round"/>
<path d="M4.5 100.5V28.5H28.5V76.5H76.5V4.5H100.5V100.5H4.5Z" fill="#1ABCFD"/>
<path d="M4.5 28.5V24.5H0.5V28.5H4.5ZM4.5 100.5H0.5C0.5 102.709 2.29086 104.5 4.5 104.5L4.5 100.5ZM100.5 100.5V104.5H104.5V100.5H100.5ZM100.5 4.5H104.5V0.5H100.5V4.5ZM76.5 4.5V0.5H72.5V4.5H76.5ZM76.5 76.5V80.5H80.5V76.5H76.5ZM28.5 76.5H24.5V80.5H28.5V76.5ZM28.5 28.5H32.5V24.5H28.5V28.5ZM0.5 28.5V100.5H8.5V28.5H0.5ZM4.5 104.5H100.5V96.5H4.5V104.5ZM104.5 100.5V4.5H96.5V100.5H104.5ZM100.5 0.5H76.5V8.5H100.5V0.5ZM72.5 4.5V76.5H80.5V4.5H72.5ZM76.5 72.5H28.5V80.5H76.5V72.5ZM32.5 76.5V28.5H24.5V76.5H32.5ZM28.5 24.5H4.5V32.5H28.5V24.5Z" fill="white"/>
<path d="M148.5 4.5H100.5V100.5H124.5V28.5H148.5V4.5Z" fill="#0FCF82"/>
<path d="M100.5 4.5V0.5H96.5V4.5H100.5ZM148.5 4.5H152.5C152.5 2.29086 150.709 0.5 148.5 0.5V4.5ZM148.5 28.5V32.5H152.5V28.5H148.5ZM124.5 28.5V24.5H120.5V28.5H124.5ZM124.5 100.5V104.5H128.5V100.5H124.5ZM100.5 100.5H96.5V104.5H100.5V100.5ZM100.5 8.5H148.5V0.5H100.5V8.5ZM144.5 4.5V28.5H152.5V4.5H144.5ZM148.5 24.5H124.5V32.5H148.5V24.5ZM120.5 28.5V100.5H128.5V28.5H120.5ZM124.5 96.5H100.5V104.5H124.5V96.5ZM104.5 100.5V4.5H96.5V100.5H104.5Z" fill="white"/>
</svg>
